<?xml version="1.0" encoding="utf-8"?>
<!-- Generator: Adobe Illustrator 15.0.2, SVG Export Plug-In  -->
<!DOCTYPE svg PUBLIC "-//W3C//DTD SVG 1.1//EN" "http://www.w3.org/Graphics/SVG/1.1/DTD/svg11.dtd" [
	<!ENTITY ns_flows "http://ns.adobe.com/Flows/1.0/">
]>
<svg version="1.1"
	 xmlns="http://www.w3.org/2000/svg" xmlns:xlink="http://www.w3.org/1999/xlink" xmlns:a="http://ns.adobe.com/AdobeSVGViewerExtensions/3.0/"
	 x="0px" y="0px" width="53px" height="88px" viewBox="-0.595 -0.5 53 88"
	 overflow="visible" enable-background="new -0.595 -0.5 53 88" xml:space="preserve">
<defs>
</defs>
<g>
	<path fill="#FFF200" d="M34.195,12.042c2.078,2.441,15.529,3.428,12.154,13.089c-3.376,9.661,3.896,10.753-1.87,10.597
		c-5.765-0.156-38.958,0.156-39.737-0.571s3.428-22.439,5.766-22.596c2.337-0.156,9.974-5.558,12.051-0.831
		C24.637,16.457,32.117,9.601,34.195,12.042z"/>
	<path fill="#FFDE17" d="M34.306,11.94c0.869,0.854,2.165,1.229,3.34,1.676c1.213,0.408,2.421,0.842,3.636,1.307
		c1.205,0.486,2.407,1.044,3.525,1.835c1.105,0.787,2.14,1.877,2.695,3.283c0.559,1.4,0.6,2.97,0.302,4.367
		c-0.069,0.353-0.158,0.698-0.257,1.038l-0.241,0.886c-0.158,0.573-0.277,1.155-0.371,1.729c-0.185,1.149-0.245,2.287-0.08,3.367
		c0.083,0.541,0.227,1.06,0.404,1.583c0.093,0.263,0.2,0.522,0.325,0.806l0.205,0.47c0.069,0.196,0.173,0.356,0.237,0.836
		c0.029,0.227,0.008,0.683-0.268,1.068c-0.274,0.376-0.57,0.5-0.756,0.576c-0.39,0.135-0.598,0.133-0.812,0.152
		c-0.407,0.02-0.745,0.002-1.082-0.016l-1.922-0.136l-3.827-0.258c-2.557-0.171-5.116-0.29-7.675-0.351
		c-5.118-0.106-10.235,0.045-15.36,0.28c-2.563,0.101-5.126,0.234-7.707,0.246c-0.646,0.006-1.293,0.009-1.948-0.013l-0.998-0.04
		l-0.529-0.04c-0.205-0.027-0.337-0.021-0.725-0.13c-0.052-0.017-0.119-0.038-0.234-0.094c-0.028-0.012-0.131-0.065-0.236-0.145
		c-0.092-0.059-0.452-0.479-0.297-0.305c0.036,0.062-0.198-0.277-0.258-0.549c-0.059-0.244-0.066-0.362-0.079-0.491
		c-0.016-0.231-0.02-0.431-0.015-0.612c0.007-0.369,0.03-0.709,0.056-1.046c0.054-0.672,0.129-1.324,0.21-1.973
		c0.701-5.173,1.663-10.208,3.277-15.251c0.218-0.629,0.454-1.259,0.726-1.899c0.292-0.648,0.547-1.27,1.124-2.04
		c0.17-0.202,0.326-0.41,0.707-0.668c0.075-0.056,0.209-0.127,0.339-0.184c0.114-0.056,0.288-0.11,0.473-0.141l0.166-0.024
		l0.06-0.005l0.039-0.004c0.113-0.012,0.396-0.086,0.648-0.172c0.53-0.18,1.124-0.396,1.717-0.626
		c1.193-0.464,2.444-0.935,3.797-1.243c1.334-0.3,2.857-0.537,4.451,0.076c0.784,0.31,1.472,0.936,1.856,1.632
		c0.206,0.349,0.33,0.729,0.425,0.961c0.083,0.206,0.216,0.433,0.365,0.603c0.584,0.732,1.893,0.771,3.09,0.524
		c1.227-0.214,2.429-0.679,3.672-1.025c0.623-0.171,1.25-0.355,1.913-0.411c0.637-0.069,1.429,0.019,1.896,0.593L34.306,11.94z
		 M34.081,12.14c-0.381-0.45-1.029-0.529-1.632-0.448c-0.611,0.085-1.218,0.272-1.811,0.494c-1.186,0.456-2.354,0.974-3.609,1.396
		c-0.631,0.201-1.293,0.368-2.019,0.385c-0.714,0.033-1.554-0.16-2.199-0.691c-0.321-0.266-0.571-0.561-0.792-0.917
		c-0.2-0.335-0.311-0.554-0.468-0.736c-0.311-0.377-0.676-0.594-1.108-0.689c-0.874-0.199-2.001,0.102-3.097,0.486
		c-1.105,0.41-2.215,0.943-3.376,1.476c-0.584,0.268-1.167,0.558-1.842,0.807c-0.352,0.125-0.68,0.248-1.198,0.341l-0.199,0.028
		l-0.06,0.007c0.023-0.002-0.076,0.007-0.028,0.004l0.076-0.007c0.106-0.017,0.201-0.055,0.245-0.069
		c0.058-0.022,0.118-0.064,0.13-0.068c0.112-0.083,0.059-0.042,0.029,0.004c-0.188,0.26-0.451,0.823-0.654,1.351
		c-0.211,0.545-0.406,1.121-0.588,1.707c-0.762,2.343-1.357,4.806-1.957,7.257c-0.586,2.456-1.121,4.939-1.555,7.408
		c-0.105,0.616-0.203,1.232-0.278,1.834c-0.037,0.299-0.069,0.598-0.086,0.867l-0.013,0.347c-0.002,0.031,0.007,0.071-0.017-0.016
		c-0.034-0.196-0.251-0.455-0.163-0.331c0.166,0.192-0.183-0.212-0.257-0.261c-0.089-0.067-0.175-0.11-0.185-0.115
		c-0.079-0.037-0.108-0.045-0.122-0.049c-0.082-0.017,0.105,0.029,0.218,0.043l0.425,0.058L6.81,34.13l1.887,0.149l7.643,0.518
		c5.11,0.328,10.229,0.487,15.346,0.39c2.559-0.058,5.117-0.176,7.679-0.332l3.849-0.211c0.636-0.038,1.314-0.04,1.915-0.065
		c0.303-0.013,0.605-0.032,0.836-0.068c0.103-0.014,0.215-0.055,0.125-0.035c-0.038,0.017-0.188,0.06-0.371,0.302
		c-0.182,0.254-0.185,0.54-0.174,0.61c0.024,0.16-0.006,0.024-0.062-0.071l-0.204-0.398c-0.151-0.295-0.31-0.617-0.45-0.95
		c-0.29-0.667-0.492-1.388-0.611-2.111c-0.244-1.45-0.177-2.906,0.101-4.27c0.136-0.685,0.322-1.347,0.537-1.998
		c0.119-0.345,0.236-0.635,0.353-0.938c0.105-0.267,0.202-0.535,0.282-0.804c0.313-1.077,0.456-2.166,0.197-3.207
		c-0.465-2.124-2.539-3.849-4.732-5.019c-1.102-0.623-2.286-1.102-3.458-1.621c-0.586-0.259-1.184-0.495-1.766-0.779
		c-0.574-0.284-1.185-0.565-1.646-1.075L34.081,12.14z"/>
</g>
<path fill="#FFF200" stroke="#FFDE17" stroke-miterlimit="10" d="M26.31,27.866c0,0,1.406,6.078,4.39,4.675
	c2.986-1.402,2.883-5.143,2.83-5.351"/>
<g>
	<path fill="#FFF200" d="M27.353,16.571c0.271,1.599-3.905-0.062,0.312,2.026c4.215,2.087,3.371,3.727,6.881,2.13
		c3.511-1.597-2.418-3.916-4.596-4.623C28.879,15.756,27.353,16.571,27.353,16.571z"/>
	<path fill="#FFDE17" d="M27.753,16.791c0.049,0.1,0.082,0.217,0.077,0.344c0.009,0.285-0.159,0.582-0.333,0.771
		c-0.354,0.404-0.714,0.557-0.998,0.716c-0.141,0.068-0.278,0.138-0.343,0.188c-0.012,0.02-0.068,0.07,0.144,0.035
		c0.057-0.014,0.152-0.036,0.325-0.141c0.161-0.102,0.543-0.395,0.644-0.988c0.046-0.221,0.005-0.507-0.033-0.633
		c-0.025-0.116-0.111-0.289-0.129-0.322c-0.082-0.145-0.126-0.197-0.163-0.247c-0.125-0.153-0.097-0.135-0.081-0.154
		c0.018-0.006,0.056,0.001,0.097,0.009c0.086,0.015,0.188,0.042,0.289,0.078c0.854,0.188,1.688,0.957,2.369,1.887
		c0.658,0.904,1.31,1.803,2.086,2.167c0.383,0.174,0.622,0.079,0.911-0.135c0.294-0.213,0.615-0.537,0.95-0.849
		c0.389-0.307,0.636-0.616,0.469-0.566c-0.042,0.023-0.126,0.098-0.202,0.252c-0.077,0.15-0.12,0.375-0.111,0.543
		c0.025,0.349,0.092,0.417,0.038,0.412c-0.097-0.021-0.404-0.215-0.723-0.388c-0.324-0.186-0.685-0.401-1.051-0.634
		c-0.735-0.47-1.519-0.991-2.29-1.569c-0.238-0.175-0.249-0.234-0.296-0.318c-0.108-0.092-0.287-0.183-0.489-0.236
		C28.577,16.904,28.182,16.849,27.753,16.791z M27.38,16.245c0.307-0.436,0.676-0.793,1.161-1.086
		c0.274-0.151,0.584-0.295,0.963-0.364c0.44-0.069,0.905-0.004,1.125-0.014c1.072,0.046,2.106,0.233,3.134,0.592
		c0.514,0.185,1.02,0.417,1.524,0.742c0.504,0.342,1.009,0.71,1.552,1.427c0.258,0.363,0.595,0.861,0.689,1.696
		c0.042,0.41-0.025,0.883-0.188,1.262c-0.161,0.383-0.383,0.664-0.588,0.868c-0.833,0.776-1.523,0.837-2.02,0.916
		c-0.562,0.062-1.158,0.089-1.827,0.03c-0.677-0.038-1.447-0.365-1.876-0.733c-0.452-0.352-0.805-0.664-1.245-0.871
		c-0.434-0.208-0.918-0.316-1.408-0.374c-0.965-0.116-1.926-0.119-2.781-0.864c-0.112-0.081-0.223-0.173-0.345-0.285l-0.21-0.188
		c-0.084-0.088-0.155-0.142-0.364-0.383c-0.058-0.072-0.122-0.147-0.219-0.319c-0.028-0.045-0.117-0.233-0.148-0.363
		c-0.043-0.139-0.084-0.442-0.038-0.678c0.106-0.624,0.511-0.94,0.697-1.058c0.198-0.122,0.322-0.155,0.408-0.178
		c0.328-0.071,0.395-0.033,0.502-0.026c0.179,0.027,0.284,0.084,0.386,0.128c0.196,0.11,0.334,0.198,0.408,0.362
		c0.037,0.07,0.049,0.185,0.149,0.243c0.082,0.04,0.234,0.023,0.333-0.13L27.38,16.245z"/>
</g>
<g>
	<path fill="#FFF200" d="M21.812,16.571c-0.271,1.599,2.953,0.448-1.263,2.536c-4.215,2.087-4.005,3.195-5.929,1.62
		c-2.984-2.444,2.418-3.916,4.595-4.623C20.286,15.756,21.812,16.571,21.812,16.571z"/>
	<path fill="#FFDE17" d="M22.065,16.65c0.193,0.208,0.425,0.188,0.502,0.054c0.12-0.131,0.164-0.241,0.499-0.222
		c0.093,0.018,0.202,0.022,0.463,0.196c0.122,0.091,0.355,0.277,0.496,0.688c0.145,0.425,0.036,0.863-0.053,1.052
		c-0.196,0.417-0.309,0.497-0.4,0.625c-0.092,0.111-0.155,0.186-0.223,0.255c-0.248,0.267-0.44,0.44-0.644,0.609
		c-0.407,0.316-0.797,0.593-1.269,0.704c-0.451,0.123-0.924,0.117-1.417,0.133c-0.494,0.014-0.987,0.055-1.422,0.208
		c-0.442,0.149-0.808,0.409-1.195,0.721c-0.201,0.152-0.394,0.338-0.691,0.515c-0.286,0.182-0.76,0.336-1.213,0.303
		c-0.443-0.02-0.803-0.116-1.107-0.21c-0.32-0.098-0.545-0.18-0.839-0.327c-0.491-0.28-1.15-0.72-1.569-1.804
		c-0.204-0.542-0.22-1.28-0.035-1.859c0.178-0.59,0.469-1.001,0.734-1.331c0.551-0.635,1.076-0.988,1.591-1.267
		c0.514-0.276,1.018-0.459,1.521-0.587c0.997-0.26,1.983-0.358,2.93-0.331c0.321-0.049,0.211,0.01,0.521-0.011
		c0.261-0.006,0.434,0.027,0.601,0.068c0.333,0.097,0.615,0.23,0.868,0.377c0.495,0.329,0.888,0.696,1.191,1.184L22.065,16.65z
		 M21.388,16.806c-0.88,0.117-1.703,0.303-1.795,0.662c-0.804,0.585-1.577,1.027-2.289,1.446c-0.684,0.395-1.41,0.808-1.625,0.893
		c-0.047,0.004-0.036-0.029-0.011-0.184c0.028-0.147-0.005-0.404-0.078-0.504c-0.151-0.193-0.13,0.055,0.074,0.359
		c0.172,0.319,0.392,0.714,0.386,0.896c-0.007,0.087-0.005,0.204,0.144,0.237c0.139,0.031,0.353-0.005,0.55-0.08
		c0.406-0.152,0.809-0.396,1.153-0.725c0.348-0.327,0.647-0.75,0.959-1.179c0.312-0.428,0.657-0.852,1.029-1.139
		c0.351-0.299,0.781-0.436,1.181-0.562c0.198-0.053,0.406-0.107,0.536-0.103c0.026,0.002,0.055,0.009,0.049,0.043
		c-0.007,0.052-0.034,0.051-0.179,0.364c-0.063,0.138-0.159,0.516-0.032,0.885c0.125,0.356,0.319,0.496,0.397,0.551
		c0.172,0.101,0.178,0.053,0.167,0.021c-0.078-0.174-0.474-0.465-0.657-0.952C21.192,17.396,21.25,17.05,21.388,16.806z"/>
</g>
<g>
	<path fill="#FFF200" d="M12.568,23.068c4.851,4.471,3.636,3.389,8.311,3.909s9.766,2.078,12.519-0.623
		c2.752-2.701,4.675-2.649,4.778-4.052"/>
	<path fill="#FFDE17" d="M12.704,22.921c1.374,0.278,2.503,0.874,3.523,1.406c0.5,0.26,0.953,0.5,1.2,0.534
		c0.121,0.038,0.241,0.035,0.445,0.068c0.201,0.025,0.476,0.06,0.765,0.121c1.209,0.2,2.438,0.917,3.597,1.363
		c1.169,0.413,2.383,0.488,3.606,0.283c1.223-0.217,2.391-0.516,3.39-0.665c1.021-0.203,1.774-0.592,2.312-0.921
		c0.163-0.096,0.244-0.138,0.462-0.306c0.221-0.161,0.543-0.426,0.821-0.598c0.574-0.382,1.2-0.696,1.835-0.942
		c0.638-0.24,1.29-0.407,1.881-0.497l0.785-0.124c0.223-0.037,0.448-0.098,0.652-0.357l0.398,0.029
		c0.168,0.345,0.124,0.863-0.08,1.254c-0.196,0.394-0.432,0.701-0.654,0.965c-0.437,0.54-0.836,0.966-1.198,1.402l-1.044,1.247
		l-0.511,0.626c-0.218,0.249-0.591,0.607-0.933,0.843c-1.465,1.048-3.175,1.167-4.547,1.075c-1.413-0.038-2.656-0.573-3.824-1.102
		c-1.168-0.521-2.334-0.848-3.554-0.769c-1.229,0.1-2.405,0.595-3.605,0.672c-0.313,0.023-0.641,0.023-1.038-0.033
		c-0.393-0.049-0.867-0.183-1.302-0.379c-0.871-0.435-1.374-0.96-1.802-1.462c-0.821-1.027-1.446-2.089-1.851-3.44L12.704,22.921z"
		/>
</g>
<circle fill="none" stroke="#FFDE17" stroke-miterlimit="10" cx="25.769" cy="25.769" r="25.269"/>
<line fill="#FFF200" stroke="#FFDE17" stroke-miterlimit="10" x1="2.547" y1="35.742" x2="26.31" y2="87.301"/>
<line fill="none" stroke="#FFDE17" stroke-miterlimit="10" x1="49.435" y1="34.638" x2="26.31" y2="87.301"/>
</svg>
