<?xml version="1.0" encoding="utf-8"?>
<!-- Generator: Adobe Illustrator 19.1.0, SVG Export Plug-In . SVG Version: 6.00 Build 0)  -->
<svg version="1.1" id="Layer_1" xmlns="http://www.w3.org/2000/svg" xmlns:xlink="http://www.w3.org/1999/xlink" x="0px" y="0px"
	 viewBox="-70.7 199.7 97.3 77.3" style="enable-background:new -70.7 199.7 97.3 77.3;" xml:space="preserve">
<style type="text/css">
	.st0{fill:none;stroke:#808080;stroke-width:2;stroke-miterlimit:10;}
	.st1{fill:none;stroke:#808080;stroke-linejoin:bevel;stroke-miterlimit:10;}
	.st2{fill:none;stroke:#F15A22;stroke-linejoin:bevel;stroke-dasharray:1.9644,1.9644;}
	.st3{fill:#F9560B;}
	.st4{stroke:#F9560B;stroke-miterlimit:10;}
	.st5{font-family:'PoiretOne-Regular';}
	.st6{font-size:12px;}
</style>
<g>
	<path class="st0" d="M-34.5,257c5.1,22.6,22.2,12.2,45.1-8.4"/>
	<line class="st1" x1="14.8" y1="237.2" x2="19.2" y2="229"/>
	<line class="st1" x1="20.2" y1="239.7" x2="24.7" y2="231.6"/>
	<path class="st0" d="M10.1,248.9L10.1,248.9c-3.5-2-5.4-4.8-4.4-6.3l3.8-5.1c1.1-1.5,4.8-1,8.3,1l0,0c3.5,2,5.4,4.8,4.4,6.3
		l-3.8,5.1C17.3,251.4,13.6,250.9,10.1,248.9z"/>
	<g>
		<path class="st2" d="M10.1,248.9L10.1,248.9c-3.5-2-5.4-4.8-4.4-6.3l3.8-5.1c1.1-1.5,4.8-1,8.3,1l0,0c3.5,2,5.4,4.8,4.4,6.3
			l-3.8,5.1C17.3,251.4,13.6,250.9,10.1,248.9z"/>
	</g>
</g>
<path class="st3" d="M-11,231.1c0-2.4-0.3-4.8-0.9-7l-6-0.6l4.1-4.5c-1.2-2.6-2.8-5-4.7-7.1l-5.8,2.3l1.6-6.2c-2.2-1.7-4.7-3-7.3-4
	l-4.2,4.9l-1.5-6.4c-1.4-0.2-2.7-0.3-4.2-0.3c-1.4,0-2.8,0.1-4.2,0.3l-1.5,6.4l-4.2-4.9c-2.7,1-5.1,2.3-7.3,4l1.6,6.2l-5.8-2.3
	c-1.9,2.1-3.5,4.5-4.7,7.1l4.1,4.5l-6,0.6c-0.6,2.2-0.9,4.6-0.9,7c0,0.5,0,1,0,1.6l5.4,2l-4.7,3.1c0.7,2.9,1.8,5.6,3.3,8.1l5.4-0.7
	l-2.5,4.7c1.9,2.3,4.2,4.2,6.8,5.8l4.2-3l-0.1,5.1c2.7,1.1,5.7,1.8,8.7,2.1l2.3-4.5l2.3,4.5c3.1-0.2,6-1,8.7-2.1l-0.1-5.1l4.2,3
	c2.5-1.6,4.8-3.5,6.8-5.8l-2.5-4.7l5.4,0.7c1.5-2.5,2.6-5.2,3.3-8.1l-4.7-3.1l5.4-2C-11.1,232.1-11,231.6-11,231.1z M-39.9,246.1
	c-8.3,0-15.1-6.7-15.1-15.1s6.7-15.1,15.1-15.1s15.1,6.7,15.1,15.1S-31.6,246.1-39.9,246.1z"/>
<text transform="matrix(1 0 0 1 -48.2258 235.0302)" class="st4 st5 st6">API</text>
</svg>
