<?xml version="1.0" encoding="utf-8"?>
<!-- Generator: Adobe Illustrator 19.1.0, SVG Export Plug-In . SVG Version: 6.00 Build 0)  -->
<svg version="1.1" id="Layer_1" xmlns="http://www.w3.org/2000/svg" xmlns:xlink="http://www.w3.org/1999/xlink" x="0px" y="0px"
	 viewBox="-47 -30.3 270.5 161" style="enable-background:new -47 -30.3 270.5 161;" xml:space="preserve">
<style type="text/css">
	.st0{fill:none;stroke:#808080;stroke-width:2;stroke-miterlimit:10;}
	.st1{fill:none;stroke:#808080;stroke-linejoin:bevel;stroke-miterlimit:10;}
	.st2{fill:none;stroke:#F15A22;stroke-linejoin:bevel;stroke-dasharray:1.9644,1.9644;}
	.st3{fill:#FFFFFF;}
	.st4{fill:#323007;}
</style>
<g id="Texto">
	<path d="M-26.8-14c0,4.9-3,7.5-6.6,7.5c-3.7,0-6.4-2.9-6.4-7.2c0-4.5,2.8-7.4,6.6-7.4C-29.3-21.2-26.8-18.2-26.8-14z M-37.8-13.8
		c0,3,1.6,5.7,4.5,5.7c2.9,0,4.5-2.7,4.5-5.9c0-2.8-1.5-5.8-4.5-5.8C-36.3-19.7-37.8-16.9-37.8-13.8z"/>
	<path d="M-15.2-12c0,3.8-2.6,5.4-5.1,5.4c-2.8,0-4.9-2-4.9-5.2c0-3.4,2.2-5.4,5-5.4C-17.2-17.2-15.2-15.1-15.2-12z M-23.3-11.9
		c0,2.2,1.3,3.9,3.1,3.9c1.8,0,3.1-1.7,3.1-3.9c0-1.7-0.9-3.9-3-3.9S-23.3-13.8-23.3-11.9z"/>
	<path d="M-12.9-13.6c0-1.3,0-2.4-0.1-3.3h1.7l0.1,1.7h0c0.8-1.2,2-2,3.6-2c2.5,0,4.3,2.1,4.3,5.2c0,3.7-2.2,5.5-4.6,5.5
		c-1.3,0-2.5-0.6-3.1-1.6h0v5.5h-1.8V-13.6z M-11.1-10.9c0,0.3,0,0.5,0.1,0.8C-10.6-8.9-9.5-8-8.2-8c2,0,3.1-1.6,3.1-3.9
		c0-2-1.1-3.8-3-3.8c-1.3,0-2.4,0.9-2.8,2.3c-0.1,0.2-0.1,0.5-0.1,0.8V-10.9z"/>
	<path d="M-1.2-8.7C-0.6-8.3,0.3-8,1.2-8c1.3,0,2-0.7,2-1.5c0-0.9-0.5-1.4-1.9-1.9C-0.5-12-1.4-13-1.4-14.2c0-1.6,1.3-3,3.5-3
		c1,0,1.9,0.3,2.5,0.6l-0.5,1.3c-0.4-0.3-1.1-0.6-2.1-0.6c-1.1,0-1.7,0.6-1.7,1.4c0,0.8,0.6,1.2,1.9,1.7C4.1-12,5-11.1,5-9.6
		c0,1.8-1.4,3-3.8,3c-1.1,0-2.1-0.3-2.9-0.7L-1.2-8.7z"/>
	<path d="M6.7-7.9c0-0.8,0.5-1.3,1.3-1.3s1.2,0.5,1.2,1.3c0,0.8-0.5,1.3-1.3,1.3C7.2-6.6,6.7-7.1,6.7-7.9z"/>
	<path d="M11.1-7.9c0-0.8,0.5-1.3,1.3-1.3s1.2,0.5,1.2,1.3c0,0.8-0.5,1.3-1.3,1.3C11.6-6.6,11.1-7.1,11.1-7.9z"/>
	<path d="M15.4-7.9c0-0.8,0.5-1.3,1.3-1.3s1.2,0.5,1.2,1.3c0,0.8-0.5,1.3-1.3,1.3C15.9-6.6,15.4-7.1,15.4-7.9z"/>
	<path d="M32.2-13c-0.1-2-0.2-4.3-0.2-6.1h-0.1c-0.5,1.7-1.1,3.4-1.8,5.4l-2.5,6.9h-1.4l-2.3-6.7c-0.7-2-1.2-3.8-1.6-5.5h0
		c0,1.8-0.1,4.1-0.3,6.3l-0.4,6.1h-1.7l1-14.2h2.3l2.4,6.8c0.6,1.7,1.1,3.3,1.4,4.8h0.1c0.4-1.4,0.9-3,1.5-4.8l2.5-6.8h2.3l0.9,14.2
		h-1.8L32.2-13z"/>
	<path d="M42.8-6.8l-0.1-1.3h-0.1C42-7.3,41-6.6,39.5-6.6c-2.1,0-3.1-1.4-3.1-2.9c0-2.5,2.2-3.8,6.1-3.8v-0.2c0-0.8-0.2-2.4-2.3-2.4
		c-0.9,0-1.9,0.3-2.6,0.8l-0.4-1.2c0.8-0.5,2.1-0.9,3.3-0.9c3.1,0,3.9,2.1,3.9,4.2v3.8c0,0.9,0,1.7,0.2,2.4H42.8z M42.6-12
		c-2,0-4.3,0.3-4.3,2.3c0,1.2,0.8,1.8,1.7,1.8c1.3,0,2.2-0.8,2.5-1.7c0.1-0.2,0.1-0.4,0.1-0.6V-12z"/>
	<path d="M47.3-13.6c0-1.3,0-2.4-0.1-3.3h1.7l0.1,1.7h0c0.8-1.2,2-2,3.6-2c2.5,0,4.3,2.1,4.3,5.2c0,3.7-2.2,5.5-4.6,5.5
		c-1.3,0-2.5-0.6-3.1-1.6h0v5.5h-1.8V-13.6z M49.1-10.9c0,0.3,0,0.5,0.1,0.8C49.6-8.9,50.7-8,52-8c2,0,3.1-1.6,3.1-3.9
		c0-2-1.1-3.8-3-3.8c-1.3,0-2.4,0.9-2.8,2.3c-0.1,0.2-0.1,0.5-0.1,0.8V-10.9z"/>
	<path d="M71-7.2c-0.5,0.3-1.6,0.6-2.9,0.6C65-6.6,63-8.7,63-11.8c0-3.1,2.1-5.4,5.5-5.4c1.1,0,2.1,0.3,2.6,0.5l-0.4,1.4
		c-0.4-0.3-1.1-0.5-2.1-0.5c-2.3,0-3.6,1.7-3.6,3.8c0,2.4,1.5,3.8,3.5,3.8c1.1,0,1.7-0.3,2.3-0.5L71-7.2z"/>
	<path d="M78.8-6.8l-0.1-1.3h-0.1c-0.6,0.8-1.7,1.5-3.1,1.5c-2.1,0-3.1-1.4-3.1-2.9c0-2.5,2.2-3.8,6.1-3.8v-0.2
		c0-0.8-0.2-2.4-2.3-2.4c-0.9,0-1.9,0.3-2.6,0.8l-0.4-1.2c0.8-0.5,2.1-0.9,3.3-0.9c3.1,0,3.9,2.1,3.9,4.2v3.8c0,0.9,0,1.7,0.2,2.4
		H78.8z M78.5-12c-2,0-4.3,0.3-4.3,2.3c0,1.2,0.8,1.8,1.7,1.8c1.3,0,2.2-0.8,2.5-1.7c0.1-0.2,0.1-0.4,0.1-0.6V-12z"/>
	<path d="M83.2-14.2c0-1,0-1.9-0.1-2.8h1.6l0.1,1.7h0c0.5-1,1.7-1.9,3.4-1.9c1.4,0,3.6,0.8,3.6,4.3v6.1h-1.8v-5.9c0-1.6-0.6-3-2.4-3
		c-1.2,0-2.2,0.9-2.5,1.9c-0.1,0.2-0.1,0.5-0.1,0.9v6.1h-1.8V-14.2z"/>
	<path d="M94.9-14.2c0-1,0-1.9-0.1-2.8h1.6l0.1,1.7h0c0.5-1,1.7-1.9,3.4-1.9c1.4,0,3.6,0.8,3.6,4.3v6.1h-1.8v-5.9c0-1.6-0.6-3-2.4-3
		c-1.2,0-2.2,0.9-2.5,1.9c-0.1,0.2-0.1,0.5-0.1,0.9v6.1h-1.8V-14.2z"/>
	<path d="M115.8-12c0,3.8-2.6,5.4-5.1,5.4c-2.8,0-4.9-2-4.9-5.2c0-3.4,2.2-5.4,5-5.4C113.8-17.2,115.8-15.1,115.8-12z M107.7-11.9
		c0,2.2,1.3,3.9,3.1,3.9c1.8,0,3.1-1.7,3.1-3.9c0-1.7-0.9-3.9-3-3.9S107.7-13.8,107.7-11.9z"/>
	<path d="M120.3-19.9v2.9h2.6v1.4h-2.6v5.5c0,1.3,0.4,2,1.4,2c0.5,0,0.8-0.1,1.1-0.1l0.1,1.4c-0.4,0.1-0.9,0.3-1.6,0.3
		c-0.9,0-1.6-0.3-2-0.8c-0.5-0.5-0.7-1.4-0.7-2.6v-5.5h-1.6V-17h1.6v-2.4L120.3-19.9z"/>
	<path d="M129.4-6.8c0-0.7,0.1-1.7,0.1-2.6v-12.3h1.8v6.4h0c0.7-1.1,1.8-1.9,3.5-1.9c2.5,0,4.3,2.1,4.3,5.2c0,3.6-2.3,5.4-4.6,5.4
		c-1.5,0-2.6-0.6-3.4-1.9h-0.1L131-6.8H129.4z M131.3-10.9c0,0.2,0,0.5,0.1,0.7c0.4,1.3,1.4,2.2,2.8,2.2c1.9,0,3.1-1.6,3.1-3.9
		c0-2-1-3.8-3-3.8c-1.3,0-2.4,0.9-2.8,2.3c0,0.2-0.1,0.5-0.1,0.8V-10.9z"/>
	<path d="M142.5-11.5c0,2.5,1.6,3.5,3.5,3.5c1.3,0,2.1-0.2,2.8-0.5l0.3,1.3c-0.7,0.3-1.8,0.6-3.4,0.6c-3.1,0-5-2.1-5-5.1
		s1.8-5.5,4.8-5.5c3.3,0,4.2,2.9,4.2,4.8c0,0.4,0,0.7-0.1,0.9H142.5z M147.9-12.9c0-1.2-0.5-3-2.6-3c-1.9,0-2.7,1.7-2.8,3H147.9z"/>
	<path d="M156.4-21.7h1.8v14.9h-1.8V-21.7z"/>
	<path d="M170.6-12c0,3.8-2.6,5.4-5.1,5.4c-2.8,0-4.9-2-4.9-5.2c0-3.4,2.2-5.4,5-5.4C168.6-17.2,170.6-15.1,170.6-12z M162.5-11.9
		c0,2.2,1.3,3.9,3.1,3.9c1.8,0,3.1-1.7,3.1-3.9c0-1.7-0.9-3.9-3-3.9S162.5-13.8,162.5-11.9z"/>
	<path d="M178.5-6.8l-0.1-1.3h-0.1c-0.6,0.8-1.7,1.5-3.1,1.5c-2.1,0-3.1-1.4-3.1-2.9c0-2.5,2.2-3.8,6.1-3.8v-0.2
		c0-0.8-0.2-2.4-2.3-2.4c-0.9,0-1.9,0.3-2.6,0.8l-0.4-1.2c0.8-0.5,2.1-0.9,3.3-0.9c3.1,0,3.9,2.1,3.9,4.2v3.8c0,0.9,0,1.7,0.2,2.4
		H178.5z M178.3-12c-2,0-4.3,0.3-4.3,2.3c0,1.2,0.8,1.8,1.7,1.8c1.3,0,2.2-0.8,2.5-1.7c0.1-0.2,0.1-0.4,0.1-0.6V-12z"/>
	<path d="M191.8-21.7v12.3c0,0.9,0,1.9,0.1,2.6h-1.7l-0.1-1.8h0c-0.6,1.1-1.8,2-3.5,2c-2.5,0-4.3-2.1-4.3-5.2c0-3.4,2.1-5.5,4.6-5.5
		c1.6,0,2.6,0.7,3.1,1.6h0v-6.1H191.8z M189.9-12.8c0-0.2,0-0.5-0.1-0.8c-0.3-1.2-1.3-2.1-2.7-2.1c-1.9,0-3,1.7-3,3.9
		c0,2.1,1,3.8,3,3.8c1.2,0,2.4-0.8,2.7-2.2c0.1-0.3,0.1-0.5,0.1-0.8V-12.8z"/>
	<path d="M195.9-11.5c0,2.5,1.6,3.5,3.5,3.5c1.3,0,2.1-0.2,2.8-0.5l0.3,1.3c-0.7,0.3-1.8,0.6-3.4,0.6c-3.1,0-5-2.1-5-5.1
		s1.8-5.5,4.8-5.5c3.3,0,4.2,2.9,4.2,4.8c0,0.4,0,0.7-0.1,0.9H195.9z M201.3-12.9c0-1.2-0.5-3-2.6-3c-1.9,0-2.7,1.7-2.8,3H201.3z"/>
	<path d="M214.2-21.7v12.3c0,0.9,0,1.9,0.1,2.6h-1.7l-0.1-1.8h0c-0.6,1.1-1.8,2-3.5,2c-2.5,0-4.3-2.1-4.3-5.2c0-3.4,2.1-5.5,4.6-5.5
		c1.6,0,2.6,0.7,3.1,1.6h0v-6.1H214.2z M212.3-12.8c0-0.2,0-0.5-0.1-0.8c-0.3-1.2-1.3-2.1-2.7-2.1c-1.9,0-3,1.7-3,3.9
		c0,2.1,1,3.8,3,3.8c1.2,0,2.4-0.8,2.7-2.2c0.1-0.3,0.1-0.5,0.1-0.8V-12.8z"/>
</g>
<g id="Mappa">
	<path class="st0" d="M47.4,76.6c28.3,2.5,36.8-21.3,44.5-27.6c13.9-11.5,45.4,35,76.1,4.5"/>
	<line class="st1" x1="172.6" y1="41.2" x2="177" y2="33.1"/>
	<line class="st1" x1="178" y1="43.8" x2="182.5" y2="35.7"/>
	<path class="st0" d="M167.9,53L167.9,53c-3.5-2-5.4-4.8-4.4-6.3l3.8-5.1c1.1-1.5,4.8-1,8.3,1l0,0c3.5,2,5.4,4.8,4.4,6.3l-3.8,5.1
		C175.1,55.4,171.4,55,167.9,53z"/>
	<g>
		<path class="st2" d="M167.9,53L167.9,53c-3.5-2-5.4-4.8-4.4-6.3l3.8-5.1c1.1-1.5,4.8-1,8.3,1l0,0c3.5,2,5.4,4.8,4.4,6.3l-3.8,5.1
			C175.1,55.4,171.4,55,167.9,53z"/>
	</g>
	<path class="st0" d="M32.7,41.2"/>
	<path class="st0" d="M5.3,47.8"/>
	<path class="st0" d="M5.3,47.8"/>
	<path class="st0" d="M-15.2,52.7"/>
	<line class="st0" x1="22.3" y1="99.4" x2="-16.2" y2="110.4"/>
	<polyline class="st0" points="23.3,42.9 40.5,47.8 55.1,108.4 22.3,99.4 	"/>
	<path class="st0" d="M-9.7,47.8"/>
	<line class="st0" x1="22.3" y1="80.2" x2="50.7" y2="89.2"/>
	<line class="st0" x1="-11.9" y1="91.4" x2="21.3" y2="80.2"/>
	<line class="st0" x1="-30.4" y1="89.2" x2="-11.9" y2="91.4"/>
	<line class="st0" x1="-21.4" y1="64.2" x2="-8.1" y2="65.2"/>
	<line class="st0" x1="23.3" y1="60.2" x2="44.5" y2="64.2"/>
	<line class="st0" x1="12.3" y1="64.2" x2="23.3" y2="60.2"/>
	<polyline class="st0" points="-11.9,93.2 -6.8,64.2 -2.2,52.7 -3.3,51.4 -15.2,47.8 -37.8,108.4 -16.2,110.4 	"/>
	<line class="st0" x1="-16.2" y1="110.4" x2="-11.9" y2="93.2"/>
	<line class="st0" x1="22.2" y1="80.2" x2="23.3" y2="42.9"/>
	<line class="st0" x1="22.2" y1="99.4" x2="22.2" y2="80.2"/>
	<line class="st0" x1="-6" y1="65.2" x2="1.7" y2="64.2"/>
</g>
<g id="marcador">
	<g>
		<path class="st3" d="M7,9.7c10.7,0,19.3,8.5,19.3,19.1c0,3.5-0.9,6.7-2.6,9.5L23,40.1L7.4,75.2L-9.2,39.1c-1.9-3-3-6.5-3-10.3
			C-12.3,18.2-3.6,9.7,7,9.7 M7,6.7c-12.3,0-22.3,9.9-22.3,22.1c0,4.2,1.2,8.2,3.4,11.7L4.7,76.4l2.8,6l2.7-6.1l15.6-35.1l0.7-1.6
			c1.9-3.3,2.9-7.1,2.9-10.9C29.3,16.6,19.3,6.7,7,6.7L7,6.7z"/>
	</g>
	<g>
		<path class="st4" d="M7,12.7c9,0,16.3,7.2,16.3,16.1c0,2.8-0.8,5.6-2.2,8L21.1,37L21,37.1l-0.8,1.8l-12.9,29L-6.5,37.8l-0.1-0.2
			l-0.1-0.2c-1.7-2.6-2.6-5.6-2.6-8.7C-9.3,19.9-2,12.7,7,12.7 M7,9.7c-10.7,0-19.3,8.5-19.3,19.1c0,3.8,1.1,7.3,3,10.3L7.4,75.2
			L23,40.1l0.8-1.8c1.6-2.8,2.6-6.1,2.6-9.5C26.3,18.2,17.7,9.7,7,9.7L7,9.7z"/>
	</g>
	<path class="st4" d="M19.9,29.1c0-7.1-5.8-12.8-13-12.8c-7.2,0-13,5.8-13,12.8C-6,36.2-0.2,42,7,42C14.1,42,19.9,36.2,19.9,29.1z
		 M-2.2,29.1c0-5,4.1-9,9.2-9c5,0,9.2,4.1,9.2,9c0,5-4.1,9-9.2,9C1.9,38.2-2.2,34.1-2.2,29.1z"/>
</g>
</svg>
